<svg width="1920" height="1552" viewBox="0 0 1920 1552" fill="none" xmlns="http://www.w3.org/2000/svg">
<path d="M318 1238C231.107 1199.09 28 1104 -13 1048V267.518C-13 267.518 418.013 423.293 738 380C979.384 347.342 1118 304.64 1351 267.518C1584 230.395 1921 342.824 1921 342.824L1926 1552C1819 1407 1782 1351 1664 1281C1556.37 1217.15 1464 1217 1371 1217C1281.06 1217 1196.7 1239.57 890 1281C583.297 1322.43 418.5 1283 318 1238Z" fill="#65BE64"/>
<path d="M318 1238C231.107 1199.09 28 1104 -13 1048V267.518C-13 267.518 418.013 423.293 738 380C979.384 347.342 1118 304.64 1351 267.518C1584 230.395 1921 342.824 1921 342.824L1926 1552C1819 1407 1782 1351 1664 1281C1556.37 1217.15 1464 1217 1371 1217C1281.06 1217 1196.7 1239.57 890 1281C583.297 1322.43 418.5 1283 318 1238Z" fill="url(#paint0_linear)"/>
<mask id="mask0" mask-type="alpha" maskUnits="userSpaceOnUse" x="-13" y="260" width="1939" height="1292">
<path d="M318 1238C231.107 1199.09 28 1104 -13 1048V267.518C-13 267.518 418.013 423.293 738 380C979.384 347.342 1118 304.64 1351 267.518C1584 230.395 1921 342.824 1921 342.824L1926 1552C1819 1407 1782 1351 1664 1281C1556.37 1217.15 1464 1217 1371 1217C1281.06 1217 1196.7 1239.57 890 1281C583.297 1322.43 418.5 1283 318 1238Z" fill="#65BE64"/>
<path d="M318 1238C231.107 1199.09 28 1104 -13 1048V267.518C-13 267.518 418.013 423.293 738 380C979.384 347.342 1118 304.64 1351 267.518C1584 230.395 1921 342.824 1921 342.824L1926 1552C1819 1407 1782 1351 1664 1281C1556.37 1217.15 1464 1217 1371 1217C1281.06 1217 1196.7 1239.57 890 1281C583.297 1322.43 418.5 1283 318 1238Z" fill="url(#paint1_linear)"/>
</mask>
<g mask="url(#mask0)">
<g filter="url(#filter0_d)">
<path d="M924 632C1023.85 544.443 1238 270 1238 270L353.5 336L208.5 297.5L-16.4996 217C-39.7889 337.401 -13.2767 742.088 -13.2767 742.088C4.72331 742.088 166 830 353.5 830C652.037 830 870.901 678.561 924 632Z" fill="#2D896D"/>
<path d="M924 632C1023.85 544.443 1238 270 1238 270L353.5 336L208.5 297.5L-16.4996 217C-39.7889 337.401 -13.2767 742.088 -13.2767 742.088C4.72331 742.088 166 830 353.5 830C652.037 830 870.901 678.561 924 632Z" fill="url(#paint2_linear)"/>
</g>
</g>
<g filter="url(#filter1_i)">
<circle cx="1883.77" cy="629.768" r="183.768" fill="#F3F6FB"/>
</g>
<g filter="url(#filter2_d)">
<circle cx="-41.5" cy="171.5" r="164.5" fill="#FE6845"/>
</g>
<g filter="url(#filter3_d)">
<circle cx="1609" cy="1258" r="52" fill="#FE6845"/>
</g>
<defs>
<filter id="filter0_d" x="-41.0762" y="210" width="1294.08" height="643" filterUnits="userSpaceOnUse" color-interpolation-filters="sRGB">
<feFlood flood-opacity="0" result="BackgroundImageFix"/>
<feColorMatrix in="SourceAlpha" type="matrix" values="0 0 0 0 0 0 0 0 0 0 0 0 0 0 0 0 0 0 127 0"/>
<feOffset dy="8"/>
<feGaussianBlur stdDeviation="7.5"/>
<feColorMatrix type="matrix" values="0 0 0 0 0.11398 0 0 0 0 0.108993 0 0 0 0 0.358333 0 0 0 0.25 0"/>
<feBlend mode="normal" in2="BackgroundImageFix" result="effect1_dropShadow"/>
<feBlend mode="normal" in="SourceGraphic" in2="effect1_dropShadow" result="shape"/>
</filter>
<filter id="filter1_i" x="1700" y="446" width="375.536" height="377.536" filterUnits="userSpaceOnUse" color-interpolation-filters="sRGB">
<feFlood flood-opacity="0" result="BackgroundImageFix"/>
<feBlend mode="normal" in="SourceGraphic" in2="BackgroundImageFix" result="shape"/>
<feColorMatrix in="SourceAlpha" type="matrix" values="0 0 0 0 0 0 0 0 0 0 0 0 0 0 0 0 0 0 127 0" result="hardAlpha"/>
<feOffset dx="8" dy="12"/>
<feGaussianBlur stdDeviation="5"/>
<feComposite in2="hardAlpha" operator="arithmetic" k2="-1" k3="1"/>
<feColorMatrix type="matrix" values="0 0 0 0 0 0 0 0 0 0 0 0 0 0 0 0 0 0 0.13 0"/>
<feBlend mode="normal" in2="shape" result="effect1_innerShadow"/>
</filter>
<filter id="filter2_d" x="-221" y="0" width="359" height="359" filterUnits="userSpaceOnUse" color-interpolation-filters="sRGB">
<feFlood flood-opacity="0" result="BackgroundImageFix"/>
<feColorMatrix in="SourceAlpha" type="matrix" values="0 0 0 0 0 0 0 0 0 0 0 0 0 0 0 0 0 0 127 0"/>
<feOffset dy="8"/>
<feGaussianBlur stdDeviation="7.5"/>
<feColorMatrix type="matrix" values="0 0 0 0 0.11398 0 0 0 0 0.108993 0 0 0 0 0.358333 0 0 0 0.25 0"/>
<feBlend mode="normal" in2="BackgroundImageFix" result="effect1_dropShadow"/>
<feBlend mode="normal" in="SourceGraphic" in2="effect1_dropShadow" result="shape"/>
</filter>
<filter id="filter3_d" x="1542" y="1199" width="134" height="134" filterUnits="userSpaceOnUse" color-interpolation-filters="sRGB">
<feFlood flood-opacity="0" result="BackgroundImageFix"/>
<feColorMatrix in="SourceAlpha" type="matrix" values="0 0 0 0 0 0 0 0 0 0 0 0 0 0 0 0 0 0 127 0"/>
<feOffset dy="8"/>
<feGaussianBlur stdDeviation="7.5"/>
<feColorMatrix type="matrix" values="0 0 0 0 0.11398 0 0 0 0 0.108993 0 0 0 0 0.358333 0 0 0 0.25 0"/>
<feBlend mode="normal" in2="BackgroundImageFix" result="effect1_dropShadow"/>
<feBlend mode="normal" in="SourceGraphic" in2="effect1_dropShadow" result="shape"/>
</filter>
<linearGradient id="paint0_linear" x1="2305" y1="400.029" x2="28.7097" y2="914.075" gradientUnits="userSpaceOnUse">
<stop offset="0.203125" stop-color="#60BC67"/>
<stop offset="0.802083" stop-color="#51AD69"/>
<stop offset="0.979269" stop-color="#2F8D6D"/>
</linearGradient>
<linearGradient id="paint1_linear" x1="2305" y1="400.029" x2="28.7097" y2="914.075" gradientUnits="userSpaceOnUse">
<stop offset="0.203125" stop-color="#60BC67"/>
<stop offset="0.802083" stop-color="#51AD69"/>
<stop offset="0.979269" stop-color="#2F8D6D"/>
</linearGradient>
<linearGradient id="paint2_linear" x1="-4.21709" y1="253.019" x2="364.685" y2="670.283" gradientUnits="userSpaceOnUse">
<stop stop-color="#54B169"/>
<stop offset="1" stop-color="#2D896D"/>
</linearGradient>
</defs>
</svg>
