<svg width="81" height="80" viewBox="0 0 81 80" fill="none" xmlns="http://www.w3.org/2000/svg">
<path d="M73.5655 0H6.99532C3.33396 0 0.338303 2.99566 0.338303 6.65701V73.2272C0.338303 76.8885 3.33396 79.8842 6.99532 79.8842H73.5655C77.2268 79.8842 80.2225 76.8885 80.2225 73.2272V6.65701C80.2225 2.99566 77.2268 0 73.5655 0Z" fill="#4E71A8"/>
<path d="M48.8505 32.6061H42.0576V28.1907C42.0576 26.4925 43.2464 26.1528 43.9257 26.1528C44.7748 26.1528 48.6807 26.1528 48.6807 26.1528V18.6807H42.0576C34.5855 18.6807 33.0571 24.2848 33.0571 27.6812V32.6061H28.8115V40.248H33.0571C33.0571 50.0977 33.0571 61.8154 33.0571 61.8154H42.0576C42.0576 61.8154 42.0576 49.9279 42.0576 40.248H48.1712L48.8505 32.6061Z" fill="white"/>
</svg>
