<svg width="1920" height="2562" viewBox="0 0 1920 2562" fill="none" xmlns="http://www.w3.org/2000/svg">
<g filter="url(#filter0_d)">
<path d="M1244 1477.2C1448.92 1566.09 1920.31 1668.69 1978 1747.2L2179 1557.2L2422 259.203C2422 259.203 2110 -40.7971 2026 7.20285C1832.12 117.988 1850 347.203 1362 347.203C873.998 347.203 -242 -64.7974 -290 623.203C-299.954 765.88 -302 2459.2 126 2121.2C530.041 1802.12 613.998 1499.2 613.998 1499.2C613.998 1499.2 1039.07 1388.32 1244 1477.2Z" fill="#FFCB2A"/>
</g>
<g filter="url(#filter1_d)">
<path d="M62.6077 455.73C15.0919 414.48 -34.8069 293.437 -48.1842 257L-88 314.576V1220L-48.1842 1254C-48.1842 1254 -46.2631 1015.82 151.987 938.473C350.238 861.131 377.527 771.413 377.527 771.413C377.527 771.413 398.322 701.73 350.238 652.821C292.448 594.041 254.913 577.707 209.753 546.736C142.614 500.691 110.124 496.979 62.6077 455.73Z" fill="#FFD349"/>
</g>
<g filter="url(#filter2_d)">
<path d="M267.072 1819.35C250.36 1923.79 82.5433 2000.37 0.72386 2025.61H-28V3169.2H1920V733.202C1875.61 817.622 1765.94 1013.62 1682.38 1122.23C1577.92 1258 1506 1303.2 1420.5 1324.2C1300.99 1353.55 1134.01 1255.39 922.499 1148.34C710.987 1041.29 549.651 996.163 449 1003.2C377.5 1008.2 300.5 1015.7 218.5 1139.2C164.639 1220.32 207.884 1416.4 235.737 1500.82C253.146 1563.48 283.784 1714.91 267.072 1819.35Z" fill="#7669DF"/>
</g>
<g filter="url(#filter3_d)">
<ellipse cx="1662.57" cy="1138.72" rx="87.5684" ry="87.5228" fill="#A9D15A"/>
</g>
<defs>
<filter id="filter0_d" x="-302.56" y="0.000976562" width="2734.56" height="2183.71" filterUnits="userSpaceOnUse" color-interpolation-filters="sRGB">
<feFlood flood-opacity="0" result="BackgroundImageFix"/>
<feColorMatrix in="SourceAlpha" type="matrix" values="0 0 0 0 0 0 0 0 0 0 0 0 0 0 0 0 0 0 127 0"/>
<feOffset dy="8"/>
<feGaussianBlur stdDeviation="5"/>
<feColorMatrix type="matrix" values="0 0 0 0 0.833333 0 0 0 0 0.62989 0 0 0 0 0 0 0 0 0.57 0"/>
<feBlend mode="normal" in2="BackgroundImageFix" result="effect1_dropShadow"/>
<feBlend mode="normal" in="SourceGraphic" in2="effect1_dropShadow" result="shape"/>
</filter>
<filter id="filter1_d" x="-98" y="257" width="490" height="1017" filterUnits="userSpaceOnUse" color-interpolation-filters="sRGB">
<feFlood flood-opacity="0" result="BackgroundImageFix"/>
<feColorMatrix in="SourceAlpha" type="matrix" values="0 0 0 0 0 0 0 0 0 0 0 0 0 0 0 0 0 0 127 0"/>
<feOffset dy="10"/>
<feGaussianBlur stdDeviation="5"/>
<feColorMatrix type="matrix" values="0 0 0 0 0.8625 0 0 0 0 0.671238 0 0 0 0 0.0790625 0 0 0 1 0"/>
<feBlend mode="normal" in2="BackgroundImageFix" result="effect1_dropShadow"/>
<feBlend mode="normal" in="SourceGraphic" in2="effect1_dropShadow" result="shape"/>
</filter>
<filter id="filter2_d" x="-58" y="688.202" width="2008" height="2496" filterUnits="userSpaceOnUse" color-interpolation-filters="sRGB">
<feFlood flood-opacity="0" result="BackgroundImageFix"/>
<feColorMatrix in="SourceAlpha" type="matrix" values="0 0 0 0 0 0 0 0 0 0 0 0 0 0 0 0 0 0 127 0"/>
<feOffset dy="-15"/>
<feGaussianBlur stdDeviation="15"/>
<feColorMatrix type="matrix" values="0 0 0 0 0.345306 0 0 0 0 0.299844 0 0 0 0 0.7125 0 0 0 0.24 0"/>
<feBlend mode="normal" in2="BackgroundImageFix" result="effect1_dropShadow"/>
<feBlend mode="normal" in="SourceGraphic" in2="effect1_dropShadow" result="shape"/>
</filter>
<filter id="filter3_d" x="1560" y="1044.2" width="205.137" height="205.046" filterUnits="userSpaceOnUse" color-interpolation-filters="sRGB">
<feFlood flood-opacity="0" result="BackgroundImageFix"/>
<feColorMatrix in="SourceAlpha" type="matrix" values="0 0 0 0 0 0 0 0 0 0 0 0 0 0 0 0 0 0 127 0"/>
<feOffset dy="8"/>
<feGaussianBlur stdDeviation="7.5"/>
<feColorMatrix type="matrix" values="0 0 0 0 0.11398 0 0 0 0 0.108993 0 0 0 0 0.358333 0 0 0 0.25 0"/>
<feBlend mode="normal" in2="BackgroundImageFix" result="effect1_dropShadow"/>
<feBlend mode="normal" in="SourceGraphic" in2="effect1_dropShadow" result="shape"/>
</filter>
</defs>
</svg>
