<svg width="81" height="80" viewBox="0 0 81 80" fill="none" xmlns="http://www.w3.org/2000/svg">
<path d="M52.2625 30.208C53.7133 30.208 54.8895 29.0319 54.8895 27.581C54.8895 26.1302 53.7133 24.9541 52.2625 24.9541C50.8117 24.9541 49.6356 26.1302 49.6356 27.581C49.6356 29.0319 50.8117 30.208 52.2625 30.208Z" fill="white"/>
<path d="M73.9038 0H7.33362C3.67226 0 0.676605 2.99566 0.676605 6.65701V73.2272C0.676605 76.8885 3.67226 79.8842 7.33362 79.8842H73.9038C77.5651 79.8842 80.5608 76.8885 80.5608 73.2272V6.65701C80.5608 2.99566 77.5651 0 73.9038 0Z" fill="url(#paint0_radial)"/>
<path d="M40.2147 27.853C33.8739 27.853 28.62 33.0163 28.62 39.4478C28.62 45.8793 33.7833 51.0425 40.2147 51.0425C46.6462 51.0425 51.8095 45.7887 51.8095 39.4478C51.8095 33.1069 46.5556 27.853 40.2147 27.853ZM40.2147 46.8757C36.1385 46.8757 32.7869 43.5241 32.7869 39.4478C32.7869 35.3715 36.1385 32.0199 40.2147 32.0199C44.291 32.0199 47.6426 35.3715 47.6426 39.4478C47.6426 43.5241 44.291 46.8757 40.2147 46.8757Z" fill="white"/>
<path d="M59.0563 20.7872C56.7011 18.3414 53.3495 17.0732 49.545 17.0732H30.8847C23.0039 17.0732 17.75 22.3271 17.75 30.2079V48.7777C17.75 52.6728 19.0182 56.0244 21.5545 58.4702C24.0003 60.8253 27.2613 62.0029 30.9753 62.0029H49.4544C53.3495 62.0029 56.6105 60.7348 58.9657 58.4702C61.4115 56.115 62.6797 52.7634 62.6797 48.8682V30.2079C62.6797 26.4034 61.4115 23.1424 59.0563 20.7872ZM58.694 48.8682C58.694 51.6764 57.6976 53.941 56.067 55.4809C54.4365 57.0208 52.1719 57.8361 49.4544 57.8361H30.9753C28.2577 57.8361 25.9931 57.0208 24.3626 55.4809C22.7321 53.8504 21.9168 51.5858 21.9168 48.7777V30.2079C21.9168 27.4904 22.7321 25.2258 24.3626 23.5953C25.9025 22.0554 28.2577 21.2401 30.9753 21.2401H49.6356C52.3531 21.2401 54.6177 22.0554 56.2482 23.6859C57.7881 25.3164 58.694 27.581 58.694 30.2079V48.8682Z" fill="white"/>
<defs>
<radialGradient id="paint0_radial" cx="0" cy="0" r="1" gradientUnits="userSpaceOnUse" gradientTransform="translate(12.6038 80.1615) scale(102.072)">
<stop stop-color="#FFB140"/>
<stop offset="0.2559" stop-color="#FF5445"/>
<stop offset="0.599" stop-color="#FC2B82"/>
<stop offset="1" stop-color="#8E40B7"/>
</radialGradient>
</defs>
</svg>
