<svg width="80" height="80" viewBox="0 0 80 80" fill="none" xmlns="http://www.w3.org/2000/svg">
<path d="M73.2421 0H6.67191C3.01055 0 0.0148926 2.99566 0.0148926 6.65701V73.2272C0.0148926 76.8885 3.01055 79.8842 6.67191 79.8842H73.2421C76.9034 79.8842 79.8991 76.8885 79.8991 73.2272V6.65701C79.8991 2.99566 76.9034 0 73.2421 0Z" fill="#40B3E0"/>
<path d="M66.5109 20.4656L58.2676 62.0261C58.2676 62.0261 57.1149 64.9083 53.9446 63.5249L34.9226 48.9413L28.0058 45.5983L16.3621 41.6783C16.3621 41.6783 14.5752 41.0445 14.4021 39.661C14.2291 38.2776 16.4198 37.5284 16.4198 37.5284L62.706 19.371C62.706 19.371 66.5105 17.6995 66.5105 20.4664" fill="white"/>
<path d="M33.461 61.5586C33.461 61.5586 32.9058 61.5066 32.2135 59.3159C31.5223 57.1256 28.0059 45.5973 28.0059 45.5973L55.9623 27.8437C55.9623 27.8437 57.5765 26.8638 57.5188 27.8437C57.5188 27.8437 57.8069 28.0168 56.9419 28.8237C56.0777 29.631 34.9807 48.5949 34.9807 48.5949" fill="#D2E5F1"/>
<path d="M42.2163 54.5324L34.6927 61.3922C34.6927 61.3922 34.1043 61.8386 33.4611 61.5588L34.9018 48.8169" fill="#B5CFE4"/>
</svg>
