<svg width="80" height="80" viewBox="0 0 80 80" fill="none" xmlns="http://www.w3.org/2000/svg">
<path d="M73.2272 0H6.65701C2.99566 0 0 2.99566 0 6.65701V73.2272C0 76.8885 2.99566 79.8842 6.65701 79.8842H73.2272C76.8885 79.8842 79.8842 76.8885 79.8842 73.2272V6.65701C79.8842 2.99566 76.8885 0 73.2272 0Z" fill="#537599"/>
<path d="M41.5741 24.3755C38.6819 24.389 36.8376 24.3925 34.2376 24.3925C32.063 24.3925 30.8417 25.2728 30.8029 25.7978C30.7674 26.2779 31.8773 26.6661 32.5521 27.0546C33.2035 27.4584 33.7919 28.7403 33.7919 29.6062V37.1592C33.7919 37.877 33.6288 38.3769 33.0489 38.8447C32.7726 39.0676 32.4443 39.1269 32.0893 39.1249C31.8021 39.1234 31.4115 39.0697 31.1426 38.7216C28.2782 35.0139 28.2687 34.556 24.2561 27.0843C24.0615 26.7219 23.8692 26.3374 23.4707 26.0483C23.0721 25.7593 22.4815 25.5686 21.5346 25.5686C18.3094 25.5686 16.3189 25.6153 14.1982 25.6153C12.1908 25.6153 12.3839 26.8463 12.6527 27.4069C15.0594 32.4251 17.5029 37.2165 20.3119 42.0799C23.6014 47.7754 26.6088 51.1964 31.669 53.6536C32.8436 54.2239 34.9614 54.8126 37.4091 54.8126H42.6101C43.2783 54.8126 44.389 54.2854 44.389 53.5772V49.6754C44.389 48.5595 45.5016 48.1538 46.1085 47.8795C46.8235 47.5563 47.5734 48.0658 47.9511 48.4696C50.8587 51.578 50.5283 51.2398 53.1775 54.023C53.7761 54.6519 54.2282 54.9825 55.3598 54.9825C63.0007 54.9825 63.007 54.9971 64.8318 54.9825C65.3329 54.9785 66.077 54.2268 66.2414 53.9338C66.4584 53.547 66.9519 52.1664 66.1607 51.2718C63.4755 48.2353 60.7384 45.455 58.1152 42.6955C57.9152 42.4851 57.7641 42.2003 57.7586 41.9101C57.7526 41.5927 57.9296 41.2846 58.1152 41.027C61.0573 36.9434 63.4876 33.4855 66.131 29.1901C66.9902 27.7939 66.8791 26.805 66.7211 26.4644C66.5382 26.07 65.975 25.5253 65.3286 25.5219C61.7986 25.5021 60.2717 25.4526 56.5061 25.4582C55.3814 25.4599 54.3853 25.3735 53.7677 26.7276C52.1127 30.3563 49.4125 35.8934 47.068 38.1952C46.6351 38.62 46.0569 38.9357 45.5523 38.9381C45.0477 38.9406 44.5111 38.5969 44.4357 37.7748C44.378 33.8256 44.426 30.4563 44.406 26.5875C44.3999 25.405 43.9012 25.1007 43.5229 24.8383C43.0097 24.4824 42.1987 24.3726 41.5741 24.3755Z" fill="white"/>
</svg>
