<svg width="1920" height="1424" viewBox="0 0 1920 1424" fill="none" xmlns="http://www.w3.org/2000/svg">
<mask id="mask0" mask-type="alpha" maskUnits="userSpaceOnUse" x="-9" y="0" width="1976" height="1424">
<rect x="-9" width="1976" height="1423.2" fill="#EDEDED"/>
</mask>
<g mask="url(#mask0)">
<path d="M210.595 1324.26C122.265 1351.66 18.0083 1339.48 -11.1811 1324.26L-77 101.167C-77 101.167 -7.18344 58.9826 142.064 74.204C328.622 93.2306 405.721 131.284 634.16 315.843C816.911 463.49 1003.15 618.05 1131.97 704.939C1311.86 790.559 1404.95 783.139 1499.37 772.484C1617.4 759.165 1716.39 689.718 1779.21 664.983C1829.47 645.195 1979.1 587.925 2060.95 606L2071.42 664.983C2075.23 920.575 2100.17 1361.17 2066.66 1348.99C2024.78 1333.77 1880.11 1265.27 1813.48 1204.39C1746.85 1143.5 1495.57 966.556 1356.6 930.405C1217.63 894.254 1159.57 896.157 1089.13 896.157C927.312 896.157 680.8 1040.76 589.424 1107.35C498.048 1173.95 321.008 1290.01 210.595 1324.26Z" fill="#FF4E66"/>
<ellipse cx="57.3509" cy="967.507" rx="364.551" ry="364.361" fill="#FF6158"/>
<ellipse cx="57.3509" cy="967.507" rx="364.551" ry="364.361" fill="url(#paint0_linear)"/>
</g>
<ellipse cx="1674.57" cy="714.523" rx="87.5684" ry="87.5228" fill="#FFCB2A"/>
<defs>
<linearGradient id="paint0_linear" x1="183.944" y1="547.969" x2="57.4794" y2="1331.89" gradientUnits="userSpaceOnUse">
<stop offset="0.0078329" stop-color="#FE5F59"/>
<stop offset="1" stop-color="#FF4E66"/>
</linearGradient>
</defs>
</svg>
